<?xml version="1.0" encoding="UTF-8" standalone="no"?>
<svg
   viewBox="0 0 15.59 16.31"
   version="1.1"
   id="svg12"
   sodipodi:docname="human_full.svg"
   inkscape:version="1.2.2 (732a01da63, 2022-12-09)"
   xmlns:inkscape="http://www.inkscape.org/namespaces/inkscape"
   xmlns:sodipodi="http://sodipodi.sourceforge.net/DTD/sodipodi-0.dtd"
   xmlns="http://www.w3.org/2000/svg"
   xmlns:svg="http://www.w3.org/2000/svg"
   xmlns:rdf="http://www.w3.org/1999/02/22-rdf-syntax-ns#"
   xmlns:cc="http://creativecommons.org/ns#"
   xmlns:dc="http://purl.org/dc/elements/1.1/">
  <sodipodi:namedview
     id="namedview14"
     pagecolor="#ffffff"
     bordercolor="#000000"
     borderopacity="0.25"
     inkscape:showpageshadow="2"
     inkscape:pageopacity="0.0"
     inkscape:pagecheckerboard="0"
     inkscape:deskcolor="#d1d1d1"
     showgrid="false"
     inkscape:zoom="49.294913"
     inkscape:cx="7.7999935"
     inkscape:cy="9.7880283"
     inkscape:window-width="1920"
     inkscape:window-height="991"
     inkscape:window-x="-9"
     inkscape:window-y="-9"
     inkscape:window-maximized="1"
     inkscape:current-layer="svg12" />
  <defs
     id="defs4">
    <style
       id="style2">.cls-1{fill:#000000;}</style>
  </defs>
  <title
     id="title6">human_Ресурс 1</title>
  <g
     id="Слой_2"
     data-name="Слой 2"
     style="fill:#9d9d9c;fill-opacity:1">
    <g
       id="Layer_3"
       data-name="Layer 3"
       style="fill:#9d9d9c;fill-opacity:1">
      <path
         class="cls-1"
         d="M15.11,12.71a1.82,1.82,0,0,0-1-1.29l-2.81-1.29h0l-1.16-.88h0a.8.8,0,0,0-.19-.38l0,0V7.44a7.55,7.55,0,0,0,.72-1.32,1.7,1.7,0,0,0,.77-1.32c0-.69-.21-.85-.42-.86C11,3.47,11.24,0,7.71,0,3.92,0,4.46,4,4.46,4h0c-.2,0-.42.17-.38.8a1.76,1.76,0,0,0,.76,1.32,9.32,9.32,0,0,0,.72,1.32V8.89a.78.78,0,0,0-.19.36l-1.16.87v.05L1.5,11.42a1.81,1.81,0,0,0-1,1.29L0,15.15s.46,1.16,7.8,1.16,7.79-1.16,7.79-1.16Z"
         id="path8"
         style="fill:#9d9d9c;fill-opacity:1" />
    </g>
  </g>
  <metadata
     id="metadata1944">
    <rdf:RDF>
      <cc:Work
         rdf:about="">
        <dc:title>human_Ресурс 1</dc:title>
      </cc:Work>
    </rdf:RDF>
  </metadata>
</svg>
